# xmcd CD database file
#
# Track frame offsets:
#	182
#	21792
#	49620
#	73107
#	102065
#	116937
#	140975
#	162952
#	186242
#	199577
#	222237
#
# Disc length: 3197 seconds
#
# Revision: 0
# Processed by: cddbd v1.4PL0 Copyright (c) Steve Scherf et al.
# Submitted via: CDex 1.50
#
DISCID=a50c7b0b
DTITLE=Hubert Powell - Keep Pressin' On
DYEAR=1995
DGENRE=Jazz
TTITLE0=I Will Go In Jesus' Name
TTITLE1=Speak To My Heart
TTITLE2=Keep Pressin' On
TTITLE3=With My Whole Heart
TTITLE4=Jesus Loves Me
TTITLE5=I Believe
TTITLE6=High Places
TTITLE7=If You Only Knew
TTITLE8=With My Whole Heart (Reprise)
TTITLE9=Happy In My Soul
TTITLE10=My Heart Is Yours
EXTD=YEAR: 1995
EXTT0=
EXTT1=
EXTT2=
EXTT3=
EXTT4=
EXTT5=
EXTT6=
EXTT7=
EXTT8=
EXTT9=
EXTT10=
PLAYORDER=
